<?xml version="1.0" encoding="UTF-8"?>
<svg id="Layer_2" data-name="Layer 2" xmlns="http://www.w3.org/2000/svg" viewBox="0 0 155.04 268.24">
  <defs>
    <style>
      .cls-1 {
        fill: #f5ebef;
        stroke: #8f659c;
        stroke-width: 4px;
      }

      .cls-1, .cls-2 {
        stroke-miterlimit: 10;
      }

      .cls-2 {
        fill: #8f659c;
        stroke: #fff;
        stroke-width: 3px;
      }
    </style>
  </defs>
  <g id="Layer_1-2" data-name="Layer 1">
    <g>
      <path class="cls-1" d="M151.74,121.09L86.36,6.89c-3.71-6.49-13.05-6.52-16.81-.06L3.33,120.54c-3.76,6.46.88,14.57,8.35,14.59l25.02.09v119.01c0,6.6,5.4,12,12,12h57.91c6.6,0,12-5.4,12-12v-118.71l24.66.09c7.47.03,12.17-8.05,8.46-14.53Z"/>
      <path class="cls-2" d="M56.41,48.65l-7.85,13.67,5.27,14.85c.54,1.51-1.1,2.87-2.49,2.07l-13.67-7.85-14.85,5.27c-1.51.54-2.87-1.1-2.07-2.49l7.85-13.67-5.27-14.85c-.54-1.51,1.1-2.87,2.49-2.07l13.67,7.85,14.85-5.27c1.51-.54,2.87,1.1,2.07,2.49Z"/>
      <path class="cls-2" d="M43.97,27.62l-1.02,5.13,3.24,4.12c.99,1.26-.12,3.07-1.69,2.76l-5.13-1.02-4.12,3.24c-1.26.99-3.07-.12-2.76-1.69l1.02-5.13-3.24-4.12c-.99-1.26.12-3.07,1.69-2.76l5.13,1.02,4.12-3.24c1.26-.99,3.07.12,2.76,1.69Z"/>
    </g>
  </g>
</svg>