<?xml version="1.0" encoding="UTF-8"?>
<svg id="Layer_2" data-name="Layer 2" xmlns="http://www.w3.org/2000/svg" xmlns:xlink="http://www.w3.org/1999/xlink" viewBox="0 0 934.75 411.8">
  <defs>
    <style>
      .cls-1 {
        fill: url(#linear-gradient);
      }
    </style>
    <linearGradient id="linear-gradient" x1="467.38" y1="-.65" x2="467.38" y2="447.94" gradientUnits="userSpaceOnUse">
      <stop offset="0" stop-color="#8f659c"/>
      <stop offset=".56" stop-color="#cfb0cb"/>
      <stop offset="1" stop-color="#eacfdf"/>
    </linearGradient>
  </defs>
  <g id="Layer_3" data-name="Layer 3">
    <path class="cls-1" d="M844.47,107.96c.14-2.16.22-4.35.22-6.55,0-54.07-43.83-97.9-97.9-97.9-25.49,0-48.71,9.75-66.13,25.71-8.19-2.22-16.8-3.41-25.69-3.41-21.36,0-41.11,6.84-57.21,18.45-17.49-26.65-47.64-44.26-81.9-44.26-37.03,0-69.26,20.56-85.89,50.89-16.12-11.68-35.94-18.57-57.37-18.57-28.51,0-54.17,12.19-72.06,31.63-17.95-22.03-45.29-36.1-75.93-36.1-49.49,0-90.4,36.73-96.97,84.42-9.38-2.99-19.37-4.6-29.74-4.6C43.83,107.67,0,151.5,0,205.57s42.7,96.76,95.81,97.88c-7.26,9.77-11.4,21.05-11.4,33.06,0,37.29,39.92,67.52,89.16,67.52,26.94,0,51.09-9.05,67.44-23.35,18.22,19.16,43.94,31.12,72.47,31.12s54.84-12.22,73.1-31.77c4.12.52,8.33.8,12.62.8,24.25,0,46.28-8.69,62.58-22.85,18.34,21.3,45.49,34.8,75.81,34.8s57.01-13.28,75.34-34.28c12.63,13.73,30.74,22.33,50.87,22.33,13.15,0,25.44-3.67,35.9-10.04,17.04,13.49,38.57,21.55,61.99,21.55,52.52,0,95.58-40.49,99.68-91.96,42.21-10.88,73.4-49.2,73.4-94.81,0-51.5-39.77-93.72-90.28-97.61Z"/>
  </g>
</svg>