<?xml version="1.0" encoding="UTF-8"?>
<svg id="Layer_2" data-name="Layer 2" xmlns="http://www.w3.org/2000/svg" viewBox="0 0 333.47 210.63">
  <defs>
    <style>
      .cls-1 {
        fill: #f5ebef;
        stroke: #8f659c;
        stroke-width: 4px;
      }

      .cls-1, .cls-2 {
        stroke-miterlimit: 10;
      }

      .cls-2 {
        fill: #8f659c;
        stroke: #fff;
        stroke-width: 3px;
      }
    </style>
  </defs>
  <g id="Layer_1-2" data-name="Layer 1">
    <g>
      <path class="cls-1" d="M175.05,135.47L317.28,25.69c2.76-2.13,1.25-6.54-2.23-6.54H28.38c-3.44,0-4.97,4.32-2.3,6.49l135.36,109.67c3.95,3.2,9.58,3.27,13.6.16Z"/>
      <path class="cls-1" d="M157.58,154.87L26.3,46.48c-.2.1-12.33-12.72-12.33,10.11v141.45c0,5.2,2.35,10.12,11.36,10.6h294.79c6.24,0,11.35-5.4,11.35-12V41.88c0-1.3-2.89-10.57-10.87-2.83l-138.56,112.55s-6.75,3.76-6.78,3.8l-7.83,2.35c-.56.57-9.24-2.35-9.85-2.87Z"/>
      <path class="cls-2" d="M34.32,12.52l1.48,15.69,12.87,9.09c1.31.92.76,2.98-.83,3.13l-15.69,1.48-9.09,12.87c-.92,1.31-2.98.76-3.13-.83l-1.48-15.69-12.87-9.09c-1.31-.92-.76-2.98.83-3.13l15.69-1.48,9.09-12.87c.92-1.31,2.98-.76,3.13.83Z"/>
      <path class="cls-2" d="M12.03,2.52l2.13,4.78,5.02,1.5c1.54.46,1.67,2.58.21,3.23l-4.78,2.13-1.5,5.02c-.46,1.54-2.58,1.67-3.23.21l-2.13-4.78-5.02-1.5c-1.54-.46-1.67-2.58-.21-3.23l4.78-2.13,1.5-5.02c.46-1.54,2.58-1.67,3.23-.21Z"/>
    </g>
  </g>
</svg>