<svg width="247" height="179" viewBox="0 0 247 179" fill="none" xmlns="http://www.w3.org/2000/svg">
<rect width="247" height="178.757" rx="20" fill="#2D2C2B"/>
<g clip-path="url(#clip0_230_318)">
<path d="M29.6578 66.2328V75.7989C19.9042 75.8051 12 83.7634 12 93.5799C12 103.396 19.9042 111.355 29.6578 111.364C29.6578 111.364 29.6608 111.364 29.6639 111.364C29.6639 111.364 29.667 111.364 29.6701 111.364C42.0471 111.358 52.0802 101.257 52.0802 88.8C52.0802 76.343 42.0409 66.2328 29.6578 66.2328ZM29.6916 108.291C29.6916 108.291 29.6885 108.291 29.6854 108.291C29.6854 108.291 29.6823 108.291 29.6793 108.291C23.3418 108.285 18.2085 103.112 18.2085 96.7336C18.2085 90.3552 23.3448 85.1826 29.6793 85.1764V75.7989C38.5942 75.7989 45.8226 83.0739 45.8226 92.0464C45.8226 101.019 38.6034 108.285 29.6916 108.294V108.291Z" fill="#FF7301"/>
<path d="M126.619 101.946C123.049 105.449 118.613 107.202 113.314 107.202C108.015 107.202 103.573 105.453 99.9909 101.946C96.409 98.4434 94.618 94.0901 94.618 88.8896C94.618 83.6892 96.409 79.3359 99.9909 75.8329C103.573 72.3298 108.012 70.5768 113.314 70.5768C118.616 70.5768 123.049 72.3298 126.619 75.8329C130.189 79.3359 131.976 83.6892 131.976 88.8896C131.976 94.0901 130.192 98.4434 126.619 101.946ZM113.311 98.564C116.06 98.564 118.334 97.6426 120.131 95.803C121.928 93.9602 122.825 91.6568 122.825 88.8896C122.825 86.1225 121.928 83.816 120.131 81.9763C118.334 80.1336 116.06 79.2122 113.311 79.2122C110.562 79.2122 108.31 80.1398 106.491 81.9918C104.673 83.8469 103.763 86.1441 103.763 88.8896C103.763 91.6352 104.673 93.9324 106.491 95.7844C108.31 97.6395 110.583 98.564 113.311 98.564Z" fill="white"/>
<path d="M157.157 70.8427H158.654V80.0501H157.157C154.009 80.0501 151.551 80.9189 149.788 82.6596C148.024 84.4003 147.143 86.7655 147.143 89.7584V106.365H138.295V71.4115H147.143V75.9318C149.803 72.537 153.142 70.8427 157.157 70.8427Z" fill="white"/>
<path d="M185.466 106.365C188.925 106.365 191.803 107.274 194.098 109.095C196.393 110.913 197.831 113.429 198.405 116.642L189.257 119.121C189.125 117.848 188.556 116.834 187.561 116.073C186.566 115.312 185.288 114.935 183.736 114.935H172.361C169.123 114.935 166.521 114.079 164.558 112.357C162.595 110.638 161.615 108.384 161.615 105.592C161.615 103.808 162.042 102.123 162.896 100.537C163.75 98.9504 164.887 97.7106 166.306 96.8202C163.222 93.92 161.683 90.2902 161.683 85.94C161.683 81.5898 163.228 77.8827 166.324 74.9579C169.418 72.033 173.295 70.5706 177.952 70.5706C180.637 70.5706 183.165 71.1178 185.536 72.2123C186.046 70.3171 187.094 68.8268 188.679 67.7447C190.264 66.6625 192.187 66.1215 194.451 66.1215H197.311V74.3581H194.851C193.963 74.3581 193.192 74.5807 192.541 75.029C191.886 75.4742 191.481 76.0895 191.327 76.8717C193.324 79.4812 194.322 82.5081 194.322 85.9431C194.322 90.3181 192.759 93.9664 189.631 96.8913C186.504 99.8161 182.612 101.279 177.955 101.279C176.047 101.279 174.139 100.991 172.232 100.41C171.055 101.124 170.468 102.129 170.468 103.421C170.468 104.271 170.812 104.973 171.501 105.533C172.189 106.089 173.073 106.368 174.161 106.368H185.472L185.466 106.365ZM177.949 79.0113C175.863 79.0113 174.139 79.6698 172.775 80.9869C171.411 82.3041 170.73 83.9551 170.73 85.9431C170.73 87.9312 171.411 89.5822 172.775 90.8993C174.139 92.2164 175.863 92.875 177.949 92.875C180.035 92.875 181.73 92.2164 183.103 90.8993C184.48 89.5822 185.168 87.9312 185.168 85.9431C185.168 83.9551 184.48 82.3071 183.103 80.9869C181.73 79.6698 180.01 79.0113 177.949 79.0113Z" fill="white"/>
<path d="M236 88.9577C236 90.0738 235.932 91.1219 235.8 92.1051H208.887C209.507 94.3158 210.693 96.0689 212.447 97.3612C214.198 98.6567 216.327 99.3029 218.834 99.3029C220.852 99.3029 222.704 98.8948 224.388 98.0816C226.074 97.2654 227.405 96.2327 228.381 94.9836L234.301 100.206C232.461 102.416 230.182 104.135 227.466 105.363C224.75 106.59 221.783 107.202 218.566 107.202C214.929 107.202 211.636 106.399 208.687 104.794C205.738 103.186 203.431 100.972 201.766 98.1466C200.104 95.3237 199.271 92.1917 199.271 88.7567C199.271 85.3217 200.076 82.2762 201.683 79.4998C203.29 76.7233 205.507 74.5405 208.337 72.9544C211.166 71.3683 214.296 70.5768 217.734 70.5768C222.944 70.5768 227.291 72.3237 230.775 75.8174C234.255 79.3112 235.997 83.6923 235.997 88.9608L236 88.9577ZM223.307 80.3346C221.7 79.0267 219.82 78.3744 217.669 78.3744C215.519 78.3744 213.645 79.0267 212.048 80.3346C210.45 81.6393 209.375 83.3862 208.819 85.5752H226.551C225.995 83.3862 224.913 81.6393 223.307 80.3346Z" fill="white"/>
<path d="M91.1559 79.4998V71.4302H64.9426V106.365H73.7377V93.8459H84.9474V85.7762H73.7377V79.4998H91.1559Z" fill="white"/>
</g>
<defs>
<clipPath id="clip0_230_318">
<rect width="224" height="53" fill="white" transform="translate(12 66.1215)"/>
</clipPath>
</defs>
</svg>
