<?xml version="1.0" encoding="UTF-8"?>
<svg id="Layer_2" data-name="Layer 2" xmlns="http://www.w3.org/2000/svg" viewBox="0 0 640.66 64.13">
  <defs>
    <style>
      .cls-1 {
        fill: none;
        stroke: #b786ef;
        stroke-miterlimit: 10;
      }
    </style>
  </defs>
  <g id="DESIGN_LAYERS_-_Make_more_if_needed" data-name="DESIGN LAYERS - Make more if needed">
    <g id="stars">
      <g>
        <path class="cls-1" d="M.08.5s131.78,20.43,306.63,20.43S640.59.5,640.59.5"/>
        <line class="cls-1" x1="65.06" y1="8.47" x2="65.06" y2="28.5"/>
        <line class="cls-1" x1="98.16" y1="11.71" x2="98.16" y2="47.98"/>
        <line class="cls-1" x1="119.22" y1="13.42" x2="119.22" y2="28.85"/>
        <line class="cls-1" x1="82.93" y1="10.25" x2="82.93" y2="62.82"/>
        <line class="cls-1" x1="33.79" y1="4.97" x2="33.79" y2="20.93"/>
        <line class="cls-1" x1="49" y1="6.74" x2="49" y2="46.98"/>
        <line class="cls-1" x1="12.36" y1="2.24" x2="12.36" y2="20.93"/>
        <line class="cls-1" x1="144.43" y1="15.08" x2="144.43" y2="46.98"/>
        <line class="cls-1" x1="203.4" y1="18.49" x2="203.4" y2="46.98"/>
        <line class="cls-1" x1="176.04" y1="17.09" x2="176.04" y2="52.59"/>
        <line class="cls-1" x1="634.39" y1="1.26" x2="633.75" y2="43.02"/>
        <line class="cls-1" x1="598.64" y1="5" x2="598.64" y2="22.14"/>
        <line class="cls-1" x1="618.24" y1="3" x2="618.24" y2="29.03"/>
        <line class="cls-1" x1="576.38" y1="7.03" x2="576.38" y2="31.03"/>
        <line class="cls-1" x1="548.66" y1="9.92" x2="548.66" y2="40.38"/>
        <line class="cls-1" x1="515.94" y1="12.42" x2="515.94" y2="59.18"/>
        <line class="cls-1" x1="483.7" y1="15.08" x2="483.7" y2="43.02"/>
        <line class="cls-1" x1="419.24" y1="18.49" x2="419.24" y2="62.82"/>
        <line class="cls-1" x1="448.32" y1="16.94" x2="448.32" y2="36.54"/>
        <line class="cls-1" x1="380.3" y1="19.93" x2="380.3" y2="39.65"/>
        <line class="cls-1" x1="347.8" y1="20.93" x2="347.8" y2="53.55"/>
        <line class="cls-1" x1="311" y1="21.13" x2="311" y2="60.18"/>
        <line class="cls-1" x1="285.25" y1="20.83" x2="285.25" y2="40.66"/>
        <line class="cls-1" x1="256.87" y1="20.13" x2="256.87" y2="64.13"/>
        <line class="cls-1" x1="231.48" y1="19.7" x2="231.48" y2="52.59"/>
      </g>
    </g>
  </g>
</svg>