<?xml version="1.0" encoding="UTF-8"?>
<svg id="Layer_2" data-name="Layer 2" xmlns="http://www.w3.org/2000/svg" viewBox="0 0 207.48 207.48">
  <defs>
    <style>
      .cls-1 {
        fill: #f5ebef;
        stroke: #8f659c;
        stroke-miterlimit: 10;
        stroke-width: 4px;
      }

      .cls-2 {
        fill: #3d2040;
      }
    </style>
  </defs>
  <g id="Layer_1-2" data-name="Layer 1">
    <g>
      <rect class="cls-1" x="2" y="2" width="203.48" height="203.48" rx="12" ry="12"/>
      <g>
        <path class="cls-2" d="M53.96,71.79c-5.43,0-9.3-.82-11.59-2.44-2.29-1.63-3.65-3.71-4.07-6.25-.42-2.54-.63-5.13-.63-7.79s.24-5.4.72-7.88c.48-2.47,1.87-4.5,4.16-6.07,2.29-1.57,6.16-2.35,11.59-2.35s9.26.82,11.5,2.44c2.23,1.63,3.59,3.71,4.07,6.25.48,2.53.72,5.13.72,7.79s-.24,5.25-.72,7.78c-.48,2.54-1.84,4.59-4.07,6.16-2.23,1.57-6.13,2.35-11.68,2.35ZM53.96,172.45c-5.43,0-9.3-.81-11.59-2.44-2.29-1.63-3.65-3.71-4.07-6.25-.42-2.53-.63-5.13-.63-7.78v-59.02c0-2.65.24-5.22.72-7.69.48-2.47,1.87-4.53,4.16-6.16,2.29-1.63,6.16-2.44,11.59-2.44s9.26.81,11.5,2.44c2.23,1.63,3.59,3.71,4.07,6.25.48,2.53.72,5.19.72,7.97v58.84c0,2.66-.24,5.25-.72,7.79-.48,2.53-1.84,4.59-4.07,6.16-2.23,1.57-6.13,2.35-11.68,2.35Z"/>
        <path class="cls-2" d="M98.5,172.27c-5.43,0-9.3-.82-11.59-2.44-2.29-1.63-3.65-3.71-4.07-6.25-.42-2.54-.63-5.13-.63-7.79v-59.57c0-2.65.24-5.19.72-7.6.48-2.41,1.87-4.37,4.16-5.88,2.29-1.51,6.16-2.26,11.59-2.26,4.95,0,8.54.63,10.77,1.9,2.23,1.27,3.65,2.81,4.25,4.62.6,1.81.87,3.47.82,4.98-.06,1.51.03,2.44.27,2.81l-1.45,1.09c-.12-1.81.57-3.62,2.08-5.43,1.51-1.81,3.5-3.47,5.97-4.98,2.47-1.51,5.13-2.71,7.97-3.62,2.84-.9,5.52-1.36,8.06-1.36,6.03,0,11.34,1.15,15.93,3.44,4.59,2.29,8.42,5.52,11.5,9.69,3.08,4.16,5.4,9.02,6.97,14.57,1.57,5.55,2.35,11.59,2.35,18.11v29.69c0,2.66-.24,5.25-.72,7.78-.48,2.54-1.84,4.59-4.07,6.16-2.23,1.57-6.13,2.35-11.68,2.35s-9.48-.82-11.77-2.44c-2.29-1.63-3.68-3.71-4.16-6.25-.48-2.54-.72-5.13-.72-7.79v-29.51c0-2.77-.51-5.13-1.54-7.06-1.03-1.93-2.48-3.41-4.35-4.44-1.87-1.02-4.2-1.54-6.97-1.54s-4.98.54-6.97,1.63-3.53,2.6-4.62,4.53c-1.09,1.93-1.63,4.23-1.63,6.88v29.69c0,2.66-.24,5.25-.72,7.78-.48,2.54-1.84,4.59-4.07,6.16-2.24,1.57-6.13,2.35-11.68,2.35Z"/>
      </g>
    </g>
  </g>
</svg>