<svg width="247" height="179" viewBox="0 0 247 179" fill="none" xmlns="http://www.w3.org/2000/svg">
<rect width="247" height="178.757" rx="20" fill="#F5EBEF"/>
<path opacity="0.12" d="M138.576 163.59C176.803 163.59 207.792 159.442 207.792 154.325C207.792 149.208 176.803 145.06 138.576 145.06C100.349 145.06 69.3602 149.208 69.3602 154.325C69.3602 159.442 100.349 163.59 138.576 163.59Z" fill="black"/>
<path d="M186.679 56.7176C186.679 56.7176 209.569 64.3991 201.38 39.6882C201.38 39.6882 217.995 55.3987 194.918 68.9406C171.84 82.4824 186.684 56.7176 186.684 56.7176H186.679Z" fill="#534741"/>
<path d="M202.003 39.2632C200.044 39.3514 198.124 38.2312 196.535 37.1772C194.945 36.1233 194.548 34.1698 194.741 32.3377C194.846 31.3665 195.05 30.3401 195.37 29.4186C195.613 28.7343 195.966 28.1328 196.717 28.6074C198.267 29.5896 199.432 31.3389 200.166 32.9834C200.513 33.767 201.705 33.331 201.711 32.564C201.711 31.4934 201.678 30.2573 202.268 29.3137C202.682 28.6515 203.681 28.0114 204.415 28.5743C205.231 29.1978 205.485 30.7374 205.562 31.6866C205.667 32.9447 205.463 34.1588 205.005 35.3341C204.68 36.1564 205.833 36.653 206.39 36.1398C206.81 35.748 207.29 35.4224 207.83 35.2127C207.979 35.1576 208.195 35.0472 208.195 35.0637C208.195 35.2569 207.742 35.5494 207.626 35.6432C206.633 36.4323 205.59 37.1662 204.547 37.8836C204.023 38.2423 203.493 38.601 202.958 38.9431C202.423 39.2852 201.948 39.7322 201.302 39.379C200.326 38.8438 199.404 37.9719 198.598 37.2104C197.721 36.3771 196.926 35.4224 196.479 34.2802C196.088 33.2813 195.828 31.8852 196.463 30.9306C196.695 30.5774 197.015 30.2739 197.423 30.5443C197.881 30.8478 198.218 31.6148 198.477 32.0839C199.073 33.1599 199.525 34.3022 199.829 35.4997C199.868 35.6542 199.906 35.8142 199.939 35.9743C200.011 36.2943 199.912 36.5151 200.221 36.2998C200.657 35.9963 200.32 36.2391 200.221 36.1177C200.16 36.0405 199.961 35.9522 199.89 35.8805C199.465 35.4721 199.222 34.8651 198.99 34.3298C198.389 32.9558 197.953 31.51 197.649 30.0421L196.435 30.9747C197.776 31.8907 198.571 33.5849 198.345 35.2017L199.559 34.7051C198.648 34.0815 198.151 32.9282 198.345 31.8411L197.544 32.4481C197.887 32.4867 198.251 33.32 198.361 33.5848C198.427 33.7228 198.471 33.8663 198.494 34.0153C198.499 34.0981 198.477 34.1753 198.433 34.2415C198.681 34.1698 198.709 34.2526 198.516 34.4954C198.527 34.4843 198.516 34.4954 198.505 34.5285C199.211 35.3286 200.375 34.1532 199.674 33.3586C198.974 32.564 197.522 32.724 197.097 33.7449C196.645 34.8375 197.688 36.0901 198.847 35.8308C200.006 35.5714 200.337 34.1587 199.967 33.1544C199.553 32.0342 198.803 30.9361 197.544 30.7926C197.213 30.754 196.805 31.074 196.744 31.3996C196.413 33.2648 197.147 35.0638 198.72 36.1343C199.123 36.4102 199.862 36.1564 199.934 35.6376C200.265 33.2317 199.283 30.914 197.263 29.54C196.623 29.104 195.911 29.8214 196.049 30.4725C196.446 32.3708 197.031 34.3795 198.002 36.0791C198.35 36.6916 198.836 37.2821 199.481 37.5856C200.204 37.9277 201.324 37.8836 201.644 37.0227C201.909 36.3164 201.495 35.2624 201.297 34.5837C201.032 33.6566 200.673 32.7571 200.248 31.8907C199.564 30.5057 198.444 28.2763 196.529 28.8502C194.813 29.3634 194.316 31.4879 194.487 33.0385C194.68 34.8209 195.591 36.4102 196.783 37.7125C197.412 38.3968 198.118 39.0038 198.847 39.5832C199.52 40.1185 200.226 40.7972 201.054 41.0731C201.882 41.3491 202.643 41.0897 203.366 40.6427C204.304 40.0633 205.215 39.4287 206.114 38.7941C207.014 38.1595 207.886 37.5249 208.741 36.8461C209.409 36.3164 209.983 35.6266 209.834 34.7161C209.42 32.1998 206.258 33.9932 205.226 34.9534L206.611 35.759C207.257 34.1256 207.406 32.3488 207.091 30.6215C206.832 29.2089 206.225 27.443 204.773 26.8746C203.493 26.378 202.025 26.9905 201.186 28.0004C200.138 29.2585 200.077 30.9913 200.066 32.5529L201.611 32.1335C200.635 29.9538 196.33 23.9775 194.129 28.1659C193.704 28.9771 193.516 29.9042 193.334 30.7926C193.119 31.8631 192.97 32.9723 193.086 34.0649C193.273 35.897 194.084 37.4808 195.619 38.5292C197.445 39.7819 199.741 41.0069 202.014 40.9021C203.074 40.8524 203.079 39.1969 202.014 39.2466L202.003 39.2632Z" fill="#534741"/>
<path d="M194.377 29.3415C193.577 34.021 196.22 37.5913 200.055 39.9752C200.695 38.4632 201.33 36.9512 201.97 35.4392C201.164 35.2957 200.381 35.1302 199.608 34.8598C199.26 34.7494 198.918 34.617 198.593 34.4514C197.997 34.01 197.947 34.2142 198.444 35.064L196.049 36.885C197.351 36.7415 199.603 38.9819 200.634 39.7821L201.733 35.6323C200.359 35.8972 198.935 35.4999 197.986 34.4459C197.528 33.9327 197.191 33.2816 197.053 32.6028C196.981 32.2993 196.959 31.9958 196.992 31.6868C196.441 31.8358 196.281 31.9682 196.518 32.0786C196.59 32.4207 197.23 33.1712 197.406 33.5575C197.677 34.17 197.892 34.8101 198.184 35.4116C198.797 36.6753 199.658 37.641 200.828 38.4136C202.406 39.4565 204.597 38.0825 204.563 36.2669C204.541 35.2461 204.525 34.2197 204.503 33.1988C204.492 32.7132 204.563 32.1393 204.475 31.6647L204.459 30.8977C202.66 30.0865 201.766 30.1858 201.782 31.1957C201.495 31.891 201.479 32.8677 201.28 33.6127C201.026 34.5618 200.712 35.4834 200.364 36.3994C199.233 39.3903 204.028 40.6871 205.154 37.7183C206.28 34.7494 208.509 28.6131 204.111 27.068C202.378 26.461 200.513 27.2887 199.812 28.9828C198.957 31.0467 199.553 34.0817 199.597 36.2669L203.333 34.1203C202.345 33.4692 202.069 31.8137 201.595 30.8094C200.971 29.4795 200.05 28.3041 198.714 27.6364C196.137 26.3506 192.975 27.4929 192.197 30.3569C191.485 32.9781 192.65 36.0462 194.465 37.95C196.722 40.3174 199.912 41.0182 203.046 40.4112C204.762 40.0801 205.584 37.3872 204.144 36.2614C202.014 34.6004 198.973 31.5819 196.049 31.913C194.901 32.04 194.018 32.6028 193.654 33.7341C192.302 37.9169 197.539 39.6717 200.646 40.218C203.333 40.6926 205.071 37.2382 202.56 35.682C200.866 34.628 198.775 32.9339 199.161 30.6604C199.696 27.537 194.912 26.1906 194.371 29.3415H194.377Z" fill="#534741"/>
<path d="M202.737 39.782C205.932 39.782 205.938 34.8156 202.737 34.8156C199.536 34.8156 199.536 39.782 202.737 39.782Z" fill="#534741"/>
<path d="M198.273 32.7297V31.4661C198.273 31.3226 198.372 30.4452 198.273 30.7376L197.633 31.8358L197.462 31.9903L196.209 32.3269C195.657 32.3821 195.012 31.4274 195.337 32.0565C196.501 34.2804 199.961 33.1933 199.967 30.8039C199.967 28.0502 196.915 26.1851 194.465 27.4984C192.015 28.8118 191.717 31.6702 192.528 34.0652C192.926 35.2295 193.996 36.0352 195.254 35.842C196.441 35.6655 197.434 34.6611 197.406 33.403C197.39 32.6635 197.373 31.9296 197.357 31.1901C197.357 31.008 197.417 30.4507 197.357 30.2686C196.965 31.3115 196.424 31.7033 195.734 31.4329C195.514 31.4109 195.343 31.3005 195.232 31.0908C195.298 31.0411 196.06 34.1645 196.093 34.5508C196.22 35.8862 197.147 37.034 198.576 37.034C199.823 37.034 201.186 35.8917 201.06 34.5508C200.795 31.6978 200.226 27.4543 196.899 26.6431C195.045 26.1906 193.157 27.2611 192.583 29.0766C192.159 30.4176 192.401 32.0289 192.434 33.4085L197.313 32.7463C197.291 32.6801 197.009 31.5488 197.048 31.5654C197.103 31.5875 196.739 31.9075 196.722 31.9186C196.016 32.3159 194.995 31.5654 194.995 30.8094L199.625 29.5567C198.747 27.8792 196.805 26.7093 194.951 27.7081C193.097 28.7069 193.29 30.8646 193.295 32.7353C193.306 35.9303 198.273 35.9359 198.262 32.7353L198.273 32.7297Z" fill="#534741"/>
<path d="M205.11 38.066C205.805 38.066 206.478 37.8784 207.096 37.5583C207.715 37.2383 208.206 36.7582 208.609 36.2008C208.769 35.9801 208.791 35.5993 208.719 35.351C208.647 35.1027 208.448 34.8157 208.211 34.6888C207.957 34.5509 207.643 34.4846 207.361 34.5785C207.08 34.6723 206.876 34.8378 206.699 35.0861C206.677 35.1192 206.655 35.1468 206.627 35.1799L206.799 34.9592C206.638 35.1634 206.456 35.351 206.247 35.511L206.467 35.34C206.241 35.5166 205.993 35.66 205.728 35.7704L205.993 35.66C205.739 35.7649 205.474 35.8366 205.204 35.8753L205.496 35.8366C205.364 35.8532 205.237 35.8642 205.104 35.8642C204.817 35.8642 204.525 35.9856 204.326 36.1898C204.128 36.394 203.99 36.6975 204.001 36.9679C204.028 37.5638 204.486 38.077 205.104 38.0715L205.11 38.066Z" fill="#534741"/>
<path d="M146.367 116.641C146.367 116.641 150.274 156.621 156.493 154.491C156.493 154.491 158.198 154.844 158.861 150.766C158.861 150.766 159.081 154.8 160.952 154.573C160.952 154.573 163.651 155.12 164.037 151.373C164.423 147.626 167.618 125.531 167.618 125.531L146.362 116.646L146.367 116.641Z" fill="#D8C6B4"/>
<path d="M77.7478 117.253C77.7478 117.253 81.6548 157.233 87.8739 155.103C87.8739 155.103 89.579 155.456 90.2412 151.378C90.2412 151.378 90.4619 155.412 92.3326 155.186C92.3326 155.186 95.0311 155.732 95.4173 151.985C95.8036 148.238 98.9987 126.143 98.9987 126.143L77.7423 117.259L77.7478 117.253Z" fill="#D8C6B4"/>
<path d="M63.958 61.4966C63.958 61.4966 57.7886 108.981 78.7139 123.312C78.7139 123.312 88.1225 129.774 105.825 132.583C123.528 135.392 126.337 138.201 126.337 138.201C126.337 138.201 142.632 134.548 158.652 124.995L194.901 132.302C194.901 132.302 193.212 107.193 202.489 82.3778C202.489 82.3778 202.461 53.9532 171.018 43.5512C171.018 43.5512 151.351 34.0046 123.815 47.6071C123.815 47.6071 111.134 52.0273 103.629 42.282L63.9635 61.4911L63.958 61.4966Z" fill="#EAE2D8"/>
<path d="M103.976 117.253C103.976 117.253 107.883 157.233 114.102 155.103C114.102 155.103 115.807 155.456 116.469 151.378C116.469 151.378 116.69 155.412 118.561 155.186C118.561 155.186 121.259 155.732 121.645 151.985C122.032 148.238 131.38 126.805 131.38 126.805L103.97 117.259L103.976 117.253Z" fill="#EAE2D8"/>
<path d="M155.246 117.822C155.246 117.822 160.853 142.643 177.993 140.877C177.993 140.877 178.302 155.213 182.043 155.213C185.785 155.213 185.056 151.682 185.056 151.682C185.056 151.682 186.303 155.213 188.588 155.213C190.872 155.213 192.848 153.238 193.367 150.225C193.367 150.225 196.639 139.442 194.846 131.021C193.052 122.6 155.246 117.822 155.246 117.822Z" fill="#EAE2D8"/>
<path d="M123.963 47.8718C123.991 49.8639 123.842 51.8284 123.605 53.8095C123.45 55.0069 123.296 56.1989 123.13 57.3964C122.97 58.5938 122.954 58.7097 123.086 57.7385C123.009 58.3896 122.926 59.0353 122.865 59.6864C122.744 60.9777 122.766 62.258 122.711 63.5492C122.705 63.7369 122.771 64.2335 122.799 64.4377C122.893 64.8571 123.003 65.2709 123.136 65.6793C122.838 65.0723 122.81 65.0392 123.058 65.5689C123.318 66.1759 123.627 66.7609 123.952 67.3348C124.134 67.6493 124.322 67.9583 124.521 68.2618C124.521 68.2177 125.188 69.0785 125.448 69.3324C125.746 69.6304 126.06 69.9118 126.38 70.1822C126.728 70.3698 127.076 70.5409 127.219 70.6237C127.363 70.7064 127.721 70.9382 128.091 71.1534C128.201 71.1976 128.378 71.2638 128.632 71.3631C128.853 71.4404 129.079 71.5231 129.3 71.6004C130.58 72.0474 131.893 72.4116 133.207 72.7427C138.339 74.0284 143.233 74.6465 147.565 77.9906C149.971 79.8502 151.897 82.2783 153.282 84.9932C153.563 85.5451 153.812 86.1135 154.066 86.6818C154.336 87.3275 154.557 87.8407 154.717 88.2269C154.761 88.3263 154.805 88.4201 154.855 88.5194C155.517 89.75 156.185 90.953 156.891 92.156C156.93 92.2222 156.957 92.2774 156.99 92.327C157.034 92.3712 157.073 92.4098 157.128 92.4595C157.542 92.8678 157.973 93.3038 158.364 93.7342C158.513 93.8997 158.795 94.126 158.993 94.286C159.253 94.4626 159.518 94.6337 159.788 94.7937C160.312 95.1137 160.859 95.3786 161.394 95.6766C161.416 95.6877 161.432 95.6987 161.455 95.7097C161.477 95.7097 161.493 95.7208 161.515 95.7263C162.862 96.0684 164.164 96.5706 165.533 96.8741C165.814 96.9348 166.278 97.0948 166.708 97.1997C166.846 97.1721 167.045 97.1555 167.304 97.161C168.369 97.1776 169.417 97.2438 170.482 97.1831C170.593 97.1776 170.709 97.161 170.83 97.1445C170.405 97.1169 170.565 96.852 171.702 97.0065C172.651 96.7582 173.595 96.5375 174.527 96.2174C174.814 95.9856 175.454 95.8035 175.752 95.649C176.619 95.191 177.463 94.6889 178.28 94.1481C178.638 93.9108 178.992 93.6569 179.345 93.4086C179.367 93.3865 179.383 93.3755 179.411 93.3479C180.167 92.6636 180.945 92.0125 181.674 91.3006C183.263 89.761 184.686 88.0945 186.11 86.4004C186.237 86.2459 186.37 86.1245 186.491 86.0252C186.728 85.683 186.954 85.2857 187.137 85.0319C187.777 84.1434 188.4 83.244 189.013 82.339C192.407 77.3063 195.436 71.9922 198.504 66.7609C194.321 56.9218 187.462 49.2459 171.321 43.54C171.321 43.54 151.654 33.9934 124.118 47.5959C124.118 47.5959 124.063 47.6125 123.958 47.6456C123.958 47.7173 123.969 47.7835 123.974 47.8553L123.963 47.8718Z" fill="#534741"/>
<path d="M83.189 75.0493C81.5887 67.9031 80.5292 60.3873 81.1196 53.1859L63.9633 61.4964C63.9633 61.4964 60.0895 91.3337 68.9077 110.846C70.2265 108.981 72.1579 107.519 74.3487 106.818C74.3818 106.807 74.4039 106.801 74.4315 106.79C74.4535 106.774 74.4756 106.763 74.4977 106.752C74.6577 106.663 74.8067 106.564 74.9667 106.465C75.342 105.996 76.1752 105.455 76.5174 105.091C76.7933 104.798 77.0637 104.5 77.323 104.191C77.3948 104.103 77.45 104.031 77.5051 103.971C78.1618 102.944 79.1606 101.184 79.3317 100.864C79.729 100.119 80.0822 99.3628 80.4409 98.6013C80.5678 98.2757 80.6947 97.9501 80.8161 97.619C81.986 94.4184 82.753 91.1406 83.3711 87.7965C83.3711 87.791 83.3711 87.7855 83.3711 87.7744C83.3821 87.6365 83.3987 87.4654 83.4152 87.2557C83.4869 86.4611 83.5421 85.672 83.5642 84.8718C83.5808 84.32 83.5808 83.7737 83.5642 83.2219C82.2509 80.7883 81.9749 77.9243 83.1834 75.0438L83.189 75.0493Z" fill="#534741"/>
<path d="M128.543 91.113C129.658 91.2675 131.479 91.6428 132.577 91.1792L133.184 91.1682L133.041 89.5348C132.963 89.5237 131.771 90.7046 131.567 90.8591C131.176 91.1516 130.138 91.4938 129.884 91.9021L129.421 92.0511C130.188 92.5643 130.475 92.5477 130.287 92.018C130.596 91.7586 130.028 91.3393 130.563 91.0302C130.894 90.8371 131.849 90.9199 132.18 91.0744C133.488 91.6814 132.831 92.3215 131.871 92.6967L131.187 92.8844C130.408 92.8457 130.287 93.0058 130.817 93.37C131.176 93.8225 131.236 93.8225 131.01 93.37C130.855 93.0554 130.778 92.7133 130.773 92.3546C130.684 89.5017 134.812 89.5292 135.414 91.9352C135.872 93.7783 131.087 95.351 129.647 94.9482C127.522 94.3522 128.554 90.7433 129.476 89.4134C130.348 88.1552 133.764 87.0626 134.575 88.0503C135.011 88.5801 135.347 91.1185 135.016 91.7421C134.52 92.6802 132.848 92.7519 131.937 92.8844C128.085 93.4362 129.724 99.2855 133.548 98.7392C136.192 98.3585 138.879 97.2548 140.259 94.8213C141.743 92.2001 141.246 88.5304 140.198 85.8265C137.935 79.9771 128.996 80.8711 125.332 84.8608C121.668 88.8505 120.785 96.9789 125.944 99.9974C130.811 102.845 139.232 99.7657 141.153 94.4791C143.31 88.536 136.197 82.6866 130.557 84.309C125.105 85.8761 122.319 94.0929 126.982 98.0936C129.101 99.9091 132.561 99.0979 134.867 98.0108C137.571 96.7361 139.309 94.2363 138.945 91.1902C138.2 84.9767 128.896 82.3886 125.221 87.631C123.538 90.0259 123.803 94.5233 125.845 96.6754C128.207 99.1586 131.86 97.9722 134.304 96.3443C136.749 94.7164 139.933 92.0014 138.62 88.6463C138.068 87.2392 136.975 86.2569 135.596 85.6609C133.708 84.8442 132.064 85.534 130.155 85.2691C126.336 84.7394 124.681 90.5832 128.543 91.124V91.113Z" fill="#534741"/>
<path d="M91.825 144.359C89.248 144.48 86.6765 144.193 84.1601 143.619C83.3158 143.426 82.4384 143.222 81.6162 142.952C83.2607 150.335 85.3852 156.24 87.8739 155.384C87.8739 155.384 89.5791 155.737 90.2413 151.659C90.2413 151.659 90.462 155.693 92.3327 155.467C92.3327 155.467 95.0311 156.013 95.4174 152.266C95.5443 151.019 95.9858 147.73 96.5155 143.901C94.9594 144.121 93.3922 144.287 91.8195 144.359H91.825Z" fill="#352D29"/>
<path d="M159.054 146.472C156.383 146.533 153.63 146.125 151.052 145.418C152.564 151.135 154.397 155.208 156.499 154.49C156.499 154.49 158.204 154.844 158.866 150.766C158.866 150.766 159.087 154.8 160.958 154.573C160.958 154.573 163.656 155.12 164.043 151.373C164.142 150.424 164.418 148.31 164.776 145.672C162.933 146.147 161.03 146.428 159.054 146.478V146.472Z" fill="#352D29"/>
<path d="M118.826 145.976C115.162 145.788 111.724 145.672 108.352 144.817C109.919 151.157 111.862 155.87 114.108 155.097C114.108 155.097 115.813 155.451 116.475 151.373C116.475 151.373 116.696 155.406 118.567 155.18C118.567 155.18 121.265 155.727 121.651 151.98C121.751 151.019 122.44 148.889 123.412 146.257C121.894 146.224 120.393 146.053 118.826 145.976Z" fill="#534741"/>
<path d="M181.238 145.904C180.272 145.987 179.306 146.042 178.341 146.081C178.793 150.203 179.803 155.34 182.038 155.34C185.779 155.34 185.051 151.809 185.051 151.809C185.051 151.809 186.298 155.34 188.583 155.34C190.867 155.34 192.843 153.365 193.361 150.352C193.361 150.352 194.013 148.2 194.575 145.065C190.166 146.428 185.851 146.428 181.238 145.904Z" fill="#534741"/>
<path d="M47.8391 27.4487C42.4367 28.5965 32.4762 29.5677 27.1676 22.8795C26.362 21.8642 24.9548 21.5607 23.8512 22.2394C20.1374 24.5129 13.6589 30.2299 22.2564 39.1971C22.455 39.4012 22.6813 39.5723 22.9351 39.6992C24.6679 40.5656 31.8361 43.413 42.2988 37.6519C46.6306 35.2681 49.0476 33.1546 50.3609 31.4218C51.7681 29.5732 50.1071 26.9631 47.8336 27.4431L47.8391 27.4487Z" fill="#EFE7DC"/>
<path d="M22.709 23.0009C27.9183 30.7044 37.7573 36.1123 46.7852 34.8155C45.5823 35.7094 44.1144 36.6586 42.3044 37.6519C31.8417 43.4074 24.6735 40.56 22.9408 39.6991C22.6869 39.5722 22.4552 39.4012 22.262 39.197C14.4978 31.1017 19.0228 25.6551 22.709 23.0009Z" fill="#BC9388"/>
<path d="M98.6456 28.5689C104.048 29.7167 114.008 30.6879 119.317 23.9998C120.123 22.9844 121.53 22.6809 122.634 23.3596C126.347 25.6332 132.826 31.3501 124.228 40.3173C124.03 40.5215 123.803 40.6925 123.55 40.8195C121.817 41.6858 114.649 44.5333 104.186 38.7722C99.8541 36.3883 97.4371 34.2748 96.1238 32.5421C94.7166 30.6934 96.3776 28.0833 98.6511 28.5634L98.6456 28.5689Z" fill="#534741"/>
<path d="M123.781 24.1211C118.572 31.8246 108.733 37.2325 99.705 35.9357C100.908 36.8297 102.376 37.7788 104.186 38.7721C114.648 44.5277 121.817 41.6802 123.549 40.8194C123.803 40.6925 124.035 40.5214 124.228 40.3172C131.992 32.2219 127.467 26.7754 123.781 24.1211Z" fill="#BC9388"/>
<path d="M42.3038 37.6519C42.3038 37.6519 41.1615 17.913 46.7846 13.8957C52.4077 9.87843 50.5867 22.7912 54.5985 23.0009L42.3038 37.6519Z" fill="#B2936F"/>
<path d="M103.529 37.6519C103.529 37.6519 104.671 17.913 99.0484 13.8957C93.4253 9.87843 95.2463 22.7912 91.2345 23.0009L103.529 37.6519Z" fill="#B2936F"/>
<path d="M73.4217 84.7669C93.3198 84.7669 109.45 69.2441 109.45 50.0956C109.45 30.9472 93.3198 15.4243 73.4217 15.4243C53.5235 15.4243 37.3929 30.9472 37.3929 50.0956C37.3929 69.2441 53.5235 84.7669 73.4217 84.7669Z" fill="#EFE7DC"/>
<path d="M82.212 68.1956H64.6363C59.6533 68.1956 55.6139 72.235 55.6139 77.2179V77.9187C55.6139 82.9017 59.6533 86.9411 64.6363 86.9411H82.212C87.1949 86.9411 91.2343 82.9017 91.2343 77.9187V77.2179C91.2343 72.235 87.1949 68.1956 82.212 68.1956Z" fill="#BC9388"/>
<path d="M65.1333 76.2523C65.1333 76.2523 70.4584 77.0745 71.093 82.2783C71.2089 83.2495 66.2425 76.7379 65.1333 76.2523Z" fill="#9B6F67"/>
<path d="M81.6988 76.2523C81.6988 76.2523 76.3737 77.0745 75.7391 82.2783C75.6232 83.2495 80.5896 76.7379 81.6988 76.2523Z" fill="#9B6F67"/>
<path d="M75.5406 16.7047C70.2099 20.4406 66.3582 30.6604 72.0199 35.5993C74.3873 37.6686 76.6939 39.451 77.1299 42.773C77.5216 45.7694 75.8717 49.7426 77.6044 52.43C81.7762 58.8919 89.2038 54.24 94.9042 53.3736C99.374 52.6949 105.085 53.3626 108.937 56.2818C109.318 54.2565 109.533 52.1706 109.533 50.0406C109.533 31.8855 95.0256 16.9972 76.556 15.5017C76.3573 15.9487 76.0317 16.3626 75.5461 16.6992L75.5406 16.7047Z" fill="#534741"/>
<path d="M48.0818 67.0367C45.6979 64.7797 45.1681 62.3517 46.8126 59.3939C47.7948 57.6281 47.999 56.5851 47.3478 54.6206C46.8071 52.9927 45.9848 51.4476 44.6991 50.2832C42.707 48.4733 40.1079 47.8 37.4922 47.6179C37.4315 48.4401 37.3929 49.2679 37.3929 50.1067C37.3929 59.4325 41.2281 67.8976 47.4582 74.1277C49.6379 72.2129 50.7471 69.5696 48.0818 67.0422V67.0367Z" fill="#534741"/>
<path d="M48.2745 40.6485C48.2856 40.7368 48.3242 40.7257 48.3904 40.6154C48.887 40.4553 48.7105 40.2346 47.8606 39.9477C47.9158 39.9035 47.6896 40.7423 47.662 40.7864C47.5461 40.8913 47.4081 40.963 47.2592 41.0016C47.9048 41.8018 48.1697 41.8459 48.0593 41.1506C48.2193 40.803 48.2193 40.4388 48.4456 40.1077C48.5946 39.8925 49.6375 39.3075 49.6541 39.2413C48.9533 38.5405 48.6829 38.4467 48.8319 38.9488C48.8429 39.142 48.8429 39.3406 48.8319 39.5338C48.7822 39.9697 48.6111 40.4167 48.3628 40.7809C48.1752 41.0568 47.7613 41.2444 47.6123 41.4928C47.5185 41.57 47.4137 41.6142 47.2978 41.6307C47.6344 42.0998 47.7448 42.0722 47.6289 41.5424C47.8386 41.0016 47.5461 40.3174 47.8386 39.749C48.2193 39.0096 49.1188 38.7171 49.8803 38.5626C50.0183 38.5295 50.1562 38.5019 50.2942 38.4798C50.7798 38.5626 50.8074 38.4412 50.377 38.1211C50.1176 38.5074 50.0073 39.0427 49.7424 39.451C49.4554 39.898 49.1133 40.367 48.6884 40.6981C48.3352 40.974 47.9931 40.9685 48.0593 41.1837C47.3474 38.8109 43.6171 39.8207 44.3345 42.2101C45.3388 45.5487 49.1905 45.477 51.4199 43.4297C53.2189 41.7797 55.2993 38.4301 53.6438 36.0628C51.9883 33.6955 48.1476 34.5729 46.15 36.0021C43.882 37.6189 42.7949 41.6583 44.4393 44.0643C46.2879 46.7682 49.9741 45.1735 51.4917 43.0434C52.8161 41.1837 53.5003 37.4148 51.3647 35.8365C48.8484 33.9824 45.3388 37.0947 44.5276 39.3958C44.0806 40.665 43.9813 42.3591 44.649 43.5732C45.4216 44.9748 47.1488 45.0796 48.5339 44.6492C51.431 43.7497 53.0754 39.4013 50.5094 37.2437C49.2954 36.2228 47.502 36.6036 46.2769 37.4093C44.7704 38.397 44.2462 39.9752 44.5386 41.697C44.9525 44.1415 48.6718 43.1041 48.2635 40.6706L48.2745 40.6485Z" fill="#534741"/>
<path d="M52.9656 62.9973C53.3574 62.2524 53.8044 61.5295 54.3231 60.8618C54.726 60.3486 55.2888 59.6533 55.8075 59.289C56.1 59.0794 56.2931 58.9856 56.6132 59.0242C56.4752 59.0076 56.7401 59.0683 56.7456 59.0683C56.6242 59.0131 56.8836 59.1897 56.7456 59.0683C56.7622 59.0849 56.9057 59.267 56.8174 59.1345C56.845 59.1787 56.8726 59.2228 56.8946 59.267C56.867 59.1897 56.867 59.1952 56.9001 59.289C56.9222 59.3663 56.9443 59.4436 56.9553 59.5208C56.9333 59.3442 56.9443 59.6036 56.9498 59.6201C56.9664 59.8298 56.9995 59.4877 56.9388 59.736C56.9222 59.7967 56.9112 59.8629 56.8891 59.9236C56.8008 60.2161 56.558 60.5748 56.3649 60.8176C55.8903 61.4191 55.2833 61.9985 54.7039 62.4069C54.4114 62.611 54.1079 62.8318 53.7768 62.9697C53.8541 62.9366 53.5671 63.0415 53.6002 63.0304C53.6278 63.0194 53.3133 63.0911 53.4292 63.0691C53.2471 63.1077 53.3629 63.0415 53.4292 63.1132C53.4899 63.1574 53.545 63.2125 53.5837 63.2788C53.5947 63.356 53.5947 63.345 53.5837 63.2401C53.6168 62.5228 53.7934 61.8882 54.2679 61.2756C54.6597 60.7735 55.2999 60.2106 55.8682 59.863L55.951 59.8133C56.0448 59.7636 56.0614 59.7526 56.0062 59.7857C55.9731 59.7857 55.9455 59.7857 55.9124 59.7857C55.8131 59.7636 55.7413 59.714 55.6972 59.6257C55.8517 59.7857 55.6199 59.5098 55.7248 59.7029C55.6806 59.6201 55.7358 59.5429 55.6972 59.6808C55.642 59.874 55.7413 59.6477 55.6365 59.8188C55.5758 59.9236 55.5095 60.0285 55.4433 60.1278C55.4544 60.1113 55.2778 60.3486 55.355 60.2547C55.2778 60.3486 55.195 60.4424 55.1122 60.5307C54.5439 61.1377 53.8872 61.546 53.1036 61.9378L54.3176 62.8704C54.5273 61.993 54.9191 61.1984 55.493 60.5362C55.8627 60.1113 55.7855 59.5539 55.3274 59.2339C54.7425 58.831 54.0914 59.1676 53.6168 59.5594C53.2084 59.9016 52.8277 60.2823 52.4855 60.6907C51.7737 61.546 51.1391 62.7876 51.9006 63.8361L53.2029 62.8318C53.0925 62.7214 53.1422 62.7821 53.1753 62.8263L53.1532 62.738C53.1643 62.7932 53.1643 62.7932 53.1643 62.738C53.1753 62.5559 53.1808 62.4014 53.1422 62.2192C53.0484 61.7171 52.6621 61.4357 52.171 61.3915C51.7185 61.3529 51.3488 61.8054 51.3433 62.2192C51.3322 62.7656 51.3874 63.3229 51.7406 63.7699C52.1103 64.2389 52.7063 64.4762 53.2912 64.3107L52.6511 62.7987C52.5573 62.8649 52.618 62.8207 52.6897 62.8097C52.7394 62.8097 52.7394 62.8097 52.6897 62.8097C52.629 62.8097 52.64 62.8097 52.7228 62.8097C52.7504 62.8539 52.778 62.8594 52.7173 62.7987C52.7118 62.7932 52.8001 62.8759 52.8001 62.8759C52.8442 62.9035 52.7559 62.749 52.778 62.8538C52.778 62.8318 52.778 62.6276 52.7725 62.6938C52.7725 62.749 52.8166 62.5338 52.8166 62.5283C52.8166 62.5283 52.8663 62.3903 52.8387 62.4565C53.0594 61.9378 53.4788 61.4025 53.7823 61.0328C54.5494 60.1058 55.3661 59.4436 56.4642 58.9635C56.8726 58.7869 56.9664 58.1854 56.7622 57.8322C56.5139 57.4073 56.0393 57.3577 55.631 57.5342C54.1245 58.1909 52.9104 59.3608 51.9779 60.6962C51.4647 61.4301 50.957 62.28 51.1722 63.2125C51.3874 64.1451 52.5959 64.868 53.4843 64.2389C53.821 64.0017 53.9975 63.6043 53.821 63.207C53.6554 62.8373 53.2471 62.6111 52.8442 62.7269C52.8663 62.7214 53.1753 62.76 52.9767 62.7269C53.0705 62.7435 53.0539 62.8483 53.0208 62.7435C52.9987 62.6662 53.0043 62.7214 52.9987 62.6111C52.9932 62.4841 52.9987 62.3572 52.9987 62.2358L52.171 63.0635H52.2207C52.0827 63.0304 51.9447 62.9918 51.8013 62.9532C51.7516 62.9311 51.4647 62.6055 51.5143 62.5172C51.5033 62.5393 51.5143 62.6221 51.5143 62.6497C51.5033 62.8263 51.5143 62.9753 51.5474 63.1518C51.6136 63.4829 51.7958 63.7809 52.033 64.0182C52.3255 64.3052 52.8001 64.3383 53.1201 64.0844C53.4181 63.8471 53.5782 63.356 53.3354 63.0139C53.3354 63.0139 53.2195 62.8428 53.2471 62.8814C53.2857 62.9477 53.2084 62.738 53.2305 62.8594C53.1974 62.6717 53.2084 62.7214 53.2526 62.5448C53.3022 62.3406 53.5175 62.0537 53.6609 61.8771C53.8817 61.6122 54.1189 61.3584 54.3673 61.1211C54.4942 60.9997 54.6211 60.8893 54.7535 60.7735C54.8142 60.7183 54.748 60.7735 54.8363 60.7072L54.9081 60.6686C54.7867 60.7514 54.6542 60.7514 54.4942 60.6686L54.3286 59.3663C53.5616 60.2492 52.9987 61.2867 52.7283 62.4289C52.5573 63.1574 53.2967 63.6871 53.9424 63.3615C54.8474 62.909 55.7358 62.3296 56.409 61.5571C57.1264 60.7404 57.9045 59.3608 56.8505 58.4558C55.7965 57.5508 54.4556 58.7648 53.672 59.4932C52.8884 60.2216 52.2317 61.1818 52.0275 62.2579C51.9172 62.8539 51.8344 63.5491 52.1489 64.0955C52.5186 64.7411 53.3464 64.7963 53.992 64.6252C55.0405 64.3493 56.0227 63.5326 56.7843 62.7932C57.5458 62.0537 58.3625 61.1266 58.5501 60.0616C58.7433 58.9359 58.2135 57.6667 57.0105 57.4018C55.6144 57.0928 54.5218 58.0916 53.6664 59.0573C52.8111 60.023 52.1158 61.0328 51.5364 62.142C51.3267 62.5393 51.4371 63.0415 51.8344 63.2732C52.2096 63.494 52.7615 63.3726 52.9656 62.9752V62.9973Z" fill="#3F3832"/>
<path d="M93.3981 62.6111C92.8793 61.6178 92.2503 60.6962 91.5329 59.8354C90.8155 58.9745 90.0154 58.053 88.9062 57.8654C87.6977 57.6557 86.5554 58.3675 86.3733 59.6146C86.1912 60.8618 86.8589 61.8275 87.6149 62.6994C88.3102 63.4995 89.1655 64.2224 90.0981 64.7356C90.6555 65.0446 91.3011 65.2654 91.9468 65.1384C92.6752 64.995 92.9952 64.3273 92.9952 63.643C92.9952 62.4676 92.5207 61.3915 91.7757 60.5031C91.4501 60.1113 91.0693 59.7747 90.6665 59.4601C90.1864 59.0849 89.6843 58.6434 89.0497 58.5938C88.3212 58.5386 87.7032 59.0904 87.5873 59.7912C87.4714 60.492 87.8025 61.1046 88.2109 61.6399C88.9338 62.5945 89.916 63.2898 90.9811 63.8251C91.6267 64.1507 92.3717 63.6154 92.1951 62.8925C91.9247 61.7502 91.3618 60.7128 90.5948 59.8299L90.4292 61.1322C90.2802 61.2094 90.1533 61.2149 90.043 61.1432C90.0043 61.1211 90.0098 61.1266 90.054 61.1487C90.0705 61.1653 90.203 61.2536 90.1368 61.1984C90.2747 61.3032 90.3961 61.4246 90.523 61.5405C90.7879 61.7888 91.0362 62.0537 91.268 62.3296C91.3618 62.44 91.4004 62.4897 91.4887 62.6331C91.5605 62.7435 91.6377 62.8925 91.6598 62.9532C91.6819 63.0249 91.7095 63.1022 91.715 63.1739C91.704 63.0636 91.7039 63.2346 91.7039 63.2677C91.7039 63.3284 91.7039 63.3284 91.7039 63.2677L91.6819 63.3505C91.7481 63.2457 91.5991 63.4664 91.5991 63.4609C91.3618 63.792 91.5108 64.3052 91.8143 64.5314C92.1399 64.7742 92.6034 64.7632 92.9014 64.4652C93.1387 64.2279 93.3208 63.9299 93.387 63.5988C93.4201 63.4388 93.4312 63.2843 93.4201 63.1243C93.4201 63.0912 93.4201 63.0305 93.4146 62.9973C93.4146 62.9477 93.4146 62.9532 93.4036 63.0139C93.3815 63.1739 93.2877 63.3064 93.1277 63.4002L92.7083 63.5105H92.7579C92.482 63.2291 92.2061 62.9532 91.9302 62.6773C91.9302 62.8042 91.9302 62.9311 91.9302 63.0525C91.9247 63.1629 91.9302 63.1132 91.9081 63.185C91.875 63.2898 91.8585 63.185 91.9523 63.1684C91.7481 63.2015 92.0571 63.1629 92.0847 63.1684C91.6929 63.058 91.257 63.2733 91.108 63.6485C90.9479 64.0513 91.1025 64.4376 91.4446 64.6804C92.3275 65.304 93.4808 64.6418 93.7457 63.6982C94.0106 62.7545 93.4643 61.8716 92.9511 61.1377C92.0185 59.8078 90.8045 58.6324 89.298 57.9757C88.8896 57.7991 88.4095 57.8543 88.1667 58.2737C87.9626 58.6269 88.0509 59.2284 88.4647 59.4049C89.5629 59.885 90.3796 60.5527 91.1466 61.4743C91.4501 61.8385 91.8364 62.3517 92.0682 62.8539C92.0957 62.9146 92.1454 63.0415 92.162 63.1574C92.1454 63.0415 92.1564 63.2291 92.1509 63.2512C92.1509 63.3119 92.1509 63.3119 92.1509 63.2512L92.1233 63.334C92.1233 63.334 92.1454 63.2788 92.184 63.2512C92.2227 63.2291 92.2171 63.2291 92.1785 63.2512C92.1288 63.2788 92.1344 63.2788 92.2061 63.2457C92.2282 63.207 92.3275 63.2788 92.2061 63.2457C92.2668 63.2622 92.4048 63.3229 92.2834 63.2346L91.6432 64.7466C92.2282 64.9122 92.8242 64.6749 93.1939 64.2058C93.5415 63.7589 93.5967 63.2015 93.5912 62.6552C93.5857 62.2358 93.216 61.7888 92.7635 61.8275C92.2723 61.8716 91.8861 62.153 91.7922 62.6552C91.7647 62.8097 91.7481 62.9697 91.7702 63.1298C91.7702 63.2236 91.7702 63.2512 91.7812 63.196C91.7922 63.1463 91.7867 63.1684 91.7647 63.2622C91.7922 63.2236 91.8529 63.1518 91.7371 63.2677L93.0394 64.2721C93.8009 63.2236 93.1663 61.982 92.4544 61.1267C92.1233 60.7293 91.7591 60.3596 91.3618 60.0285C90.8817 59.6202 90.2195 59.2504 89.6125 59.6698C89.1545 59.9844 89.0773 60.5472 89.447 60.9721C90.0154 61.6288 90.4127 62.429 90.6224 63.3064L91.8364 62.3738C91.1521 62.0316 90.5341 61.6509 90.0209 61.1598C89.745 60.8949 89.5794 60.7017 89.3973 60.4093C89.309 60.2658 89.2704 60.2161 89.2428 60.1168C89.1876 59.9237 89.2538 60.0947 89.2152 60.1389C89.2428 60.0451 89.2373 60.0396 89.2042 60.1223C89.2538 60.0396 89.2538 60.0395 89.2042 60.1168C89.4194 60.0395 88.9172 60.2879 88.9338 60.2217L88.9062 60.2051C88.9614 60.2327 89.0165 60.2658 89.0717 60.2989C89.2318 60.3982 89.3808 60.5141 89.5353 60.63C89.767 60.8066 90.1257 61.1156 90.374 61.3805C90.8541 61.8827 91.2073 62.4676 91.3342 63.196C91.3563 63.3229 91.3508 63.494 91.3618 63.6761C91.3729 63.8582 91.3397 63.7147 91.3949 63.6761C91.2901 63.7644 91.6267 63.4498 91.6212 63.5105C91.6212 63.5492 91.2349 63.4388 91.1632 63.4057C91.0307 63.3505 90.81 63.2126 90.65 63.1132C90.0154 62.7159 89.4856 62.2634 88.9669 61.695C88.7075 61.4136 88.5089 61.1763 88.3157 60.8673C88.2219 60.7183 88.1391 60.5693 88.095 60.4534C88.0729 60.3927 88.0564 60.332 88.0398 60.2658C88.0233 60.2051 88.0122 60.1389 88.0012 60.0727C88.0122 60.161 88.0177 60.1554 88.0067 60.0561C88.0067 60.0396 88.0233 59.7802 88.0012 59.9568C88.0122 59.8795 88.0343 59.8023 88.0564 59.725C88.1116 59.5153 87.9902 59.8188 88.1005 59.6367C88.2219 59.4325 87.9957 59.736 88.1557 59.5595C88.2606 59.4436 88.0729 59.5595 88.244 59.4932C88.1226 59.5374 88.3875 59.4546 88.3819 59.4546C88.244 59.4822 88.5199 59.4546 88.5199 59.4546C88.6248 59.4601 88.6413 59.4601 88.5751 59.4546C88.6358 59.4657 88.6965 59.4822 88.7517 59.4988C88.8731 59.5319 89.0662 59.6477 89.2262 59.7692C89.2925 59.8188 89.4635 59.9844 89.5684 60.0892C89.8995 60.4203 90.214 60.7735 90.512 61.1377C91.0638 61.8164 91.5715 62.6221 91.9909 63.4222C92.2006 63.8196 92.7524 63.9354 93.1221 63.7202C93.525 63.4829 93.6243 62.9863 93.4201 62.589L93.3981 62.6111Z" fill="#3F3832"/>
<path d="M146.274 52.4796C149.624 52.6672 152.968 53.2246 156.268 53.804C157.73 54.0633 159.192 54.3227 160.655 54.5765C160.898 54.6207 161.157 54.6593 161.328 54.6814C161.758 54.7255 162.183 54.7697 162.614 54.8083C164.711 51.9554 165.952 48.4347 165.952 44.6271C165.952 35.1246 158.249 27.4266 148.752 27.4266C139.255 27.4266 131.551 35.1301 131.551 44.6271C131.551 47.6401 132.33 50.4764 133.693 52.9376C137.892 52.6562 142.102 52.2478 146.285 52.4851L146.274 52.4796Z" fill="#82EC86"/>
<path d="M153.464 35.1743C151.572 34.49 149.243 34.2914 147.317 34.9812C146.362 35.3178 145.838 36.0296 145.557 36.9732C145.286 37.8672 145.06 38.9102 145.557 39.7655C146.539 41.4817 148.923 41.6472 150.308 42.8888C151.544 43.998 151.919 46.2936 150.175 47.1489C148.183 48.1312 146.158 46.3985 144.867 45.063C144.127 44.296 142.958 45.4659 143.697 46.2329C145.038 47.618 146.605 48.8706 148.592 49.0417C150.578 49.2128 152.283 48.1478 152.857 46.2936C153.431 44.4395 152.488 42.4032 150.926 41.272C150.142 40.7036 149.232 40.3615 148.371 39.9255C147.968 39.7213 147.549 39.5006 147.212 39.1971C146.798 38.8164 146.903 38.3639 147.025 37.8672C147.135 37.4202 147.229 36.8463 147.665 36.609C148.161 36.3387 148.868 36.2835 149.419 36.2448C150.656 36.1565 151.853 36.3442 153.017 36.758C154.022 37.1222 154.452 35.5219 153.459 35.1633L153.464 35.1743Z" fill="#01430E"/>
<path d="M150.027 32.2884C148.857 38.2371 147.687 44.1913 146.517 50.14C146.313 51.183 147.908 51.6244 148.112 50.5815C149.282 44.6328 150.452 38.6786 151.621 32.7299C151.826 31.6869 150.231 31.2455 150.027 32.2884Z" fill="#01430E"/>
<path d="M132.307 54.4055C142.731 53.5888 153.326 53.3791 163.579 55.7078C164.617 55.9451 165.058 54.3503 164.021 54.113C153.619 51.7512 142.88 51.9223 132.307 52.75C131.253 52.8328 131.242 54.4883 132.307 54.4055Z" fill="#3F3632"/>
</svg>
