<svg width="119" height="120" viewBox="0 0 119 120" fill="none" xmlns="http://www.w3.org/2000/svg">
<g clip-path="url(#clip0_290_341)">
<path d="M105.755 59.0557L99.0897 58.0676C98.0076 57.9077 97.1997 56.9632 97.1997 55.8588C97.1997 54.58 96.132 53.5628 94.8624 53.6355L64.8815 55.4083C69.6283 57.9513 72.8601 62.9937 72.8601 68.7772C72.8601 77.1472 66.1223 83.9334 57.8119 83.9334C49.5016 83.9334 42.7638 77.1472 42.7638 68.7772C42.7638 63.6185 45.332 59.0557 49.2419 56.3238L20.1411 58.0385C18.9725 58.1112 18.0635 59.0848 18.0635 60.2618V62.3834C18.0635 63.357 17.4431 64.2143 16.5198 64.505L9.50788 66.7719C8.51236 67.0915 7.87754 68.0651 7.97854 69.1114L9.17604 81.5502C9.27703 82.6546 10.186 83.5265 11.2969 83.5701L18.3665 83.8462C19.1456 83.8753 19.8381 84.3112 20.2133 84.9942L24.8301 93.3497C25.1908 94.0182 25.2053 94.8174 24.8446 95.4858L21.8436 101.124C21.3386 102.083 21.5839 103.275 22.4496 103.943L32.7654 111.921C33.6455 112.604 34.8863 112.517 35.6798 111.732L40.6574 106.719C41.2778 106.094 42.1867 105.905 42.9947 106.21L49.7036 108.753C50.4682 109.044 51.0165 109.727 51.1175 110.54L51.8389 115.873C51.9831 116.978 52.9209 117.806 54.0319 117.806H66.7139C67.9402 117.806 68.9213 116.803 68.9213 115.583V108.869C68.9213 108.012 69.3974 107.242 70.1621 106.864L76.8566 103.565C77.5779 103.217 78.4292 103.275 79.0784 103.725L85.744 108.346C86.6386 108.971 87.8505 108.84 88.6007 108.041L97.5171 98.6101C98.224 97.869 98.325 96.7355 97.7768 95.8636L93.3619 88.9758C92.9579 88.3509 92.9002 87.5808 93.1888 86.8978L96.7091 78.5859C97.0121 77.8883 97.6325 77.3797 98.3828 77.2635L105.784 76.0283C106.852 75.854 107.631 74.924 107.631 73.8341V61.279C107.631 60.1746 106.823 59.2301 105.741 59.0702L105.755 59.0557Z" fill="#B47D3B" stroke="#533A27" stroke-width="3.05" stroke-miterlimit="10"/>
<path d="M92.8712 26.9992C91.1255 19.1523 90.5483 12.1046 83.8827 6.66983C77.2171 1.2351 65.8192 4.1995 57.6387 4.57731C50.3382 4.91153 42.3164 2.89167 37.0647 9.24188C31.813 15.5921 30.7598 24.8631 31.1638 32.5792C31.3513 36.183 34.3379 40.2663 38.3776 39.8449C46.2552 39.0166 54.1472 38.0721 62.0391 37.3746C68.3585 36.8079 75.1828 37.8105 81.3723 36.5899C83.8539 36.0958 85.6862 33.8144 86.4076 31.5185C88.817 23.8604 84.4021 16.6238 77.1883 14.2697C73.5092 13.0782 69.5127 11.9738 65.6461 12.2935C60.4665 12.7149 55.5755 16.711 50.4248 14.9672C41.6095 11.9883 37.815 26.0111 46.587 28.9755C51.9109 30.7774 56.874 29.92 62.1257 28.2344C64.5496 27.4642 66.2232 26.8248 68.6615 26.9992C70.2197 27.4206 71.7923 27.842 73.3505 28.278C72.6435 26.7522 72.355 26.5342 72.4848 27.6386L77.5201 22.5671C75.2838 23.0176 72.0376 22.291 69.6858 22.3492C66.2809 22.4364 62.8759 22.756 59.4854 23.0903C52.4447 23.7878 45.404 24.5725 38.3776 25.3136L45.5915 32.5792C45.404 28.7866 45.1731 21.8115 48.0009 18.7018C46.8179 19.007 46.8179 19.1523 47.9865 19.1377C49.0253 19.2685 50.0641 19.3266 51.1029 19.3266C53.7432 19.3848 56.4412 19.1668 59.0814 19.036C61.9526 18.8907 64.8093 18.7163 67.666 18.5274C69.6137 18.3966 73.3216 17.2487 74.9952 18.106C78.5589 19.937 78.2559 27.6676 78.9773 30.8645C81.0116 39.9902 94.9199 36.1249 92.8856 26.9992H92.8712Z" fill="#875729"/>
<path d="M26.6768 31.1701C21.6271 28.9322 16.3466 27.0722 10.9794 29.4699C6.21828 31.606 3.34716 36.4014 3.98198 41.6617C5.56903 54.8562 22.2475 57.0068 32.6643 58.4745C39.1857 59.39 45.2165 57.5735 51.5791 56.3239C58.8218 54.8998 66.1223 54.6963 73.4371 53.8245C79.6555 53.0834 86.1768 51.9209 91.6449 48.6513C96.5792 45.716 100.605 39.8017 107.299 41.9959L102.264 36.9245C101.586 33.8584 100.576 35.5585 97.8633 36.5903C95.4683 37.4912 92.9867 38.2614 90.534 38.9879C86.0037 40.3103 81.4012 41.3711 76.7555 42.1558C66.8004 43.8269 56.7009 43.9722 46.6592 43.1439C37.4111 42.3883 37.4543 56.9196 46.6592 57.6753C64.3765 59.1284 82.3967 57.1667 99.2772 51.4704C105.481 49.3779 112.796 46.9657 115.609 40.3975C118.423 33.8293 115.018 28.2638 108.309 27.4355C101.6 26.6072 94.0255 28.2493 88.6295 32.536C81.5888 38.1306 74.9232 39.2931 65.9924 39.9906C57.0616 40.6881 48.8522 42.3737 40.1956 43.9141C35.3912 44.7714 30.6877 43.4636 25.9843 42.4755C24.0365 42.0686 21.8002 41.1386 19.8669 40.8625L18.1789 39.6854C16.1878 42.1994 16.6063 43.5508 19.4341 43.7252C27.8455 47.4597 35.2036 34.9482 26.7201 31.1846L26.6768 31.1701Z" fill="#875729"/>
<path d="M27.5858 27.0576C19.5928 24.6163 7.18499 22.8289 2.6691 32.0273C0.807925 35.8345 0.533798 40.252 1.39946 44.3644C1.84672 46.4569 2.61139 48.8401 3.89546 50.5693C5.17953 52.2985 7.09842 53.7807 8.84418 55.0886C23.3008 65.8563 43.4275 61.3516 58.5622 54.6672C66.5551 51.136 73.1342 45.6722 80.0162 40.3683C86.8982 35.0644 93.7947 30.269 102.221 29.4407C105.928 29.0774 110.112 28.8595 112.464 32.2889C114.311 34.9772 114.571 38.6245 113.878 41.7488C113.012 45.6141 110.704 48.6802 107.025 50.2642C104.702 51.2668 102.12 51.6737 99.6524 52.1532C96.8678 52.6909 94.1843 53.4901 91.4574 54.2312C68.2865 60.5088 43.8892 61.3225 20.3142 56.9922C17.4287 56.4691 14.572 55.8587 11.7153 55.1903C8.8586 54.5218 7.84866 58.765 10.5611 59.3899C33.6599 64.7519 57.6099 65.6238 80.9396 61.1336C86.9848 59.9711 92.8136 58.0384 98.8011 56.7597C103.606 55.728 108.569 55.1322 112.551 51.9643C118.322 47.3724 120.14 38.4356 117.124 31.7512C115.566 28.3073 112.45 25.6044 108.67 25.154C104.341 24.6454 99.9121 25.0668 95.7425 26.3455C87.5475 28.8595 80.7376 34.2942 74.072 39.5255C70.7103 42.1557 67.3342 44.7858 63.7273 47.0673C60.1204 49.3487 56.2393 51.0634 52.2717 52.5601C44.0911 55.6553 35.2902 57.7042 26.5037 56.9776C22.4351 56.6434 18.3521 55.5826 14.7307 53.6645C11.1093 51.7464 7.21384 48.9418 5.9442 44.6696C4.83326 40.9205 4.83326 36.2705 7.12727 32.9428C9.69541 29.2227 15.2645 29.121 19.2754 29.6151C21.6993 29.9202 24.0799 30.5596 26.4172 31.2717C29.0863 32.0854 30.2261 27.8859 27.5714 27.0721L27.5858 27.0576Z" fill="#533A27"/>
<path d="M93.5783 27.0139C93.9101 23.2502 93.4052 19.4576 92.3087 15.8392C91.2122 12.2209 89.7694 8.63168 87.5908 5.68182C83.8973 0.668497 77.1595 -1.03167 71.3163 0.610372C67.7382 1.61304 64.795 3.70555 60.9716 3.92352C57.1483 4.14149 54.2772 2.92086 50.9299 1.61304C45.1588 -0.668388 38.2335 1.17709 35.2902 7.00417C34.3957 8.777 33.9918 10.7242 33.5589 12.6569C33.1261 14.5895 32.4768 16.6239 31.7699 18.5711C30.154 22.9596 28.4659 27.319 26.8212 31.693C25.8257 34.3231 30.0097 35.4566 30.9908 32.8555C33.4291 26.4035 36.3868 19.9516 37.8728 13.1945C38.4932 10.4045 39.2146 7.8034 41.725 6.17588C44.0912 4.65009 46.6449 4.65009 49.213 5.59463C52.1274 6.66995 54.7533 7.87605 57.8697 8.19574C60.9861 8.51543 64.088 8.13762 66.9591 7.07683C69.8303 6.01604 72.3262 4.41759 75.4571 4.35946C77.9675 4.30134 80.5501 4.96978 82.5267 6.58276C85.1814 8.7334 86.6241 12.5987 87.7206 15.7521C88.9759 19.414 89.5818 23.1485 89.2356 27.0139C88.9903 29.8039 93.3186 29.7893 93.5639 27.0139H93.5783Z" fill="#533A27"/>
<path d="M26.7057 30.7482C26.2729 33.5092 25.2196 36.0958 24.7868 38.8567C24.4405 41.0655 24.2963 44.2188 26.042 45.919C27.7878 47.6192 31.438 47.7645 33.8041 48.0842C36.6031 48.4765 39.4165 48.6945 42.2299 48.7671C48.0732 48.9124 53.9308 48.5492 59.7452 48.0115C65.5596 47.4738 71.1864 46.0207 76.8854 44.524C79.5834 43.8265 78.4436 39.6124 75.7312 40.3244C70.8979 41.5886 66.0934 42.9836 61.1158 43.5213C56.1383 44.059 51.2761 44.3496 46.3707 44.4223C41.4653 44.4949 36.4444 44.2769 31.5823 43.3324C30.8176 43.1871 29.4614 43.0854 29.0718 42.5622C28.4947 41.7921 29.0286 39.6269 29.2017 38.7696C29.6922 36.4591 30.529 34.2503 30.8897 31.8962C31.3081 29.1498 27.1385 27.9727 26.7201 30.7337L26.7057 30.7482Z" fill="#533A27"/>
<path d="M30.1252 35.8635C40.1958 39.3656 50.6992 39.1185 61.1881 38.5373C66.512 38.2466 71.8358 37.9124 77.1164 37.2295C79.7999 36.8807 82.57 36.6046 85.167 35.8054C87.5476 35.0788 89.6685 33.771 91.7461 32.4196C94.0834 30.9083 91.9048 27.1302 89.5675 28.6559C87.6053 29.9347 85.6431 31.1989 83.3636 31.7947C80.882 32.4486 78.285 32.7393 75.7457 33.0444C70.6816 33.6402 65.5886 33.9454 60.4956 34.2215C50.5982 34.7591 40.7873 34.9626 31.2794 31.6639C28.6391 30.7485 27.5138 34.9626 30.1252 35.8635Z" fill="#533A27"/>
<path d="M74.2885 35.747C68.8492 37.1129 63.3234 37.8686 57.7254 38.0284C55.3882 38.1011 54.6668 41.8211 57.1483 42.3152C59.6299 42.8092 62.1115 43.1144 64.6363 43.1144C66.9736 43.1144 69.6139 42.3588 71.8935 42.8674V38.6678C67.796 39.438 63.713 40.2226 59.6155 40.9928C55.518 41.763 51.8966 42.5186 47.9002 42.6203C43.9037 42.722 39.8639 42.5622 35.8674 42.0972C34.9152 41.9809 33.9774 41.8502 33.0396 41.7048C31.8998 41.5159 31.2938 41.6758 30.9187 40.5714C30.7311 40.0047 30.3849 39.002 30.76 38.784C31.1351 38.5661 33.1406 39.2636 33.5734 39.3362C37.5122 40.0337 41.4942 40.4697 45.4907 40.5859C47.5828 40.6441 49.6603 40.5423 51.7524 40.5859C52.0553 40.5859 54.5225 40.9637 54.6379 40.833L54.4071 40.0192C54.4792 39.2636 54.2628 39.0311 53.7578 39.3362C53.2384 39.249 52.3728 39.4234 51.8389 39.4234C47.9434 39.3653 44.0912 40.0483 40.1957 39.7722C39.1714 39.6995 38.147 39.6123 37.1226 39.5251C36.4012 39.467 34.9296 39.6269 34.2948 39.2926C33.8187 39.0311 33.559 38.4353 33.1262 38.072C32.4769 37.5343 31.6257 37.142 30.7744 37.1856C28.9277 37.2728 27.7158 38.9584 28.0043 40.7458C28.3217 42.6784 30.0098 43.4195 31.6401 44.0735C35.8241 45.73 40.1957 46.7036 44.6539 47.2268C47.4096 47.5465 47.3952 43.187 44.6539 42.8674C42.3888 42.6058 40.138 42.1698 37.9306 41.5741C36.8485 41.2834 35.7664 40.9492 34.6988 40.5859C34.2804 40.4406 33.8475 40.2808 33.4291 40.1209C33.0252 39.9756 32.6212 39.8012 32.2172 39.6414C30.3993 40.2808 29.8799 40.9783 30.6302 41.7339C31.3948 43.3905 33.4724 43.5794 35.0018 43.7247C37.4833 43.9572 40.0082 44.2333 42.5042 44.2624C44.7116 44.2769 46.8902 43.8555 49.0832 43.7683C51.1464 43.6811 53.3106 44.1025 55.3304 43.4486C56.9031 42.94 58.216 41.6903 58.3603 39.9756C58.5623 37.5779 56.4991 36.7206 54.5225 36.459C49.9489 35.8487 45.2599 36.3718 40.6574 35.9504C38.3201 35.7325 36.0117 35.3982 33.7033 34.9623C31.8998 34.6135 29.9809 33.9887 28.2929 35.064C25.1043 37.0984 25.9123 43.2742 28.9277 45.1197C30.457 46.0497 32.7799 46.0643 34.4968 46.2968C36.9928 46.631 39.5176 46.8489 42.0281 46.9507C47.2076 47.1686 52.2429 46.8344 57.3359 45.8608C62.4289 44.8872 67.796 43.87 73.0189 42.8819C75.1253 42.4895 75.0532 39.1328 73.0189 38.6823C70.6383 38.1592 68.3298 38.6823 65.9348 38.755C63.3523 38.8422 60.7986 38.6387 58.2737 38.1301L57.6966 42.4169C63.6697 42.2425 69.6139 41.4287 75.4139 39.9756C78.1118 39.2926 76.9721 35.0931 74.2596 35.776L74.2885 35.747Z" fill="#533A27"/>
<path d="M60.0192 61.773C65.1555 60.2181 70.5948 61.1917 75.6878 59.2881C80.7808 57.3845 86.2777 56.9776 91.5871 55.8442C96.8965 54.7108 101.99 53.2721 107.039 51.4993C109.276 50.7146 112.06 50.0462 113.907 48.4913C115.638 47.0382 115.999 44.8585 117.067 42.9694C118.452 40.5281 114.715 38.3339 113.33 40.7752C112.363 42.4753 112.161 44.7858 110.257 45.6577C107.948 46.7185 105.452 47.4741 103.043 48.2588C98.2672 49.8137 93.405 51.0779 88.4707 52.037C83.5365 52.9961 78.7176 53.5628 73.9853 55.292C69.253 57.0212 63.8137 56.0622 58.865 57.5734C56.2103 58.3872 57.3357 62.5868 60.0192 61.773Z" fill="#533A27"/>
<path d="M112.536 39.2056C111.18 44.8147 105.842 47.7065 100.821 49.4648C94.9634 51.5137 88.9326 53.1412 82.8873 54.5508C70.5228 57.428 57.8264 58.8375 45.1732 57.4425C42.4031 57.1373 42.432 61.4967 45.1732 61.8019C58.8796 63.3132 72.7014 61.5403 86.047 58.2708C92.4674 56.7014 99.1185 55.0303 105.207 52.4001C110.488 50.1187 115.292 46.2097 116.706 40.3536C117.37 37.6217 113.2 36.4592 112.536 39.1911V39.2056Z" fill="#533A27"/>
<path d="M112.536 35.6454C112.767 37.2147 112.839 38.6824 111.974 40.0484C111.296 41.1092 110.343 42.0246 109.463 42.9401C107.299 45.207 104.976 46.2968 102.033 47.2414C96.3484 49.0869 90.5773 50.6999 84.763 52.0658C72.8457 54.8704 60.7408 56.6577 48.5349 57.4279C45.7648 57.6022 45.7504 61.9617 48.5349 61.7873C62.2701 60.9154 75.9188 58.8229 89.2644 55.4516C92.6117 54.6088 95.93 53.6788 99.234 52.6761C102.307 51.7461 105.611 50.9469 108.424 49.363C111.021 47.8953 113.243 45.4976 115.047 43.1435C117.067 40.4988 117.168 37.6943 116.706 34.4974C116.302 31.7364 112.132 32.9135 112.536 35.6599V35.6454Z" fill="#533A27"/>
<path d="M92.1789 28.5978C83.6377 30.9373 76.8422 37.3747 69.8159 42.4752C65.9493 45.2943 62.0249 48.0262 58.0429 50.7C54.0608 53.3738 50.223 55.9313 45.736 57.3699C43.0957 58.2127 44.2211 62.4268 46.8902 61.5695C51.2041 60.189 55.0708 57.893 58.822 55.4082C62.8906 52.7053 66.9015 49.9153 70.8691 47.0672C74.5771 44.3934 78.1696 41.5888 81.8486 38.9005C85.5277 36.2122 89.0769 33.9599 93.3187 32.7974C96.0022 32.0708 94.8625 27.8567 92.1645 28.5978H92.1789Z" fill="#533A27"/>
<path d="M86.4364 34.7593C90.1732 31.7803 94.516 29.0775 99.3493 28.5108C103.504 28.0312 108.468 28.3364 112.089 30.6178C112.839 31.0974 113.734 31.6931 114.152 32.4924C114.7 33.5241 114.614 34.9336 114.628 36.0816C114.657 38.3776 114.946 41.5163 113.676 43.5362C112.522 45.3672 110.487 46.8929 108.742 48.1136C106.736 49.5086 104.572 50.6566 102.278 51.5139C99.6811 52.473 100.806 56.6871 103.432 55.7135C107.746 54.1005 111.699 51.7319 115.032 48.535C116.749 46.8929 118.163 45.0475 118.596 42.6498C119.029 40.2521 119.086 37.404 118.942 34.861C118.798 32.4924 118.365 30.3853 116.634 28.6706C115.104 27.1594 113.157 26.0986 111.151 25.3575C106.909 23.8026 101.845 23.6428 97.4304 24.4275C92.1498 25.372 87.533 28.38 83.4066 31.6786C82.4832 32.4197 82.6564 33.9891 83.4066 34.7593C84.3011 35.6747 85.5564 35.4858 86.4653 34.7593H86.4364Z" fill="#533A27"/>
<path d="M74.9666 43.7686C82.2814 41.0513 87.1003 34.2506 94.7326 32.1871C98.8589 31.0827 103.505 30.4288 107.775 30.6613C109.723 30.763 111.93 31.0246 112.623 33.1026C113.373 35.355 113.835 37.7381 114.34 40.0486C114.917 42.795 119.101 41.6325 118.509 38.8861C117.557 34.4395 117.081 28.874 112.248 27.0866C107.415 25.2993 102.033 26.4182 97.3296 27.1738C92.6261 27.9294 88.4421 29.5424 84.6187 32.3324C81.1416 34.8609 77.9098 38.0142 73.8268 39.54C71.2298 40.4991 72.3551 44.7132 74.981 43.7396L74.9666 43.7686Z" fill="#533A27"/>
<path d="M80.1027 41.8795C79.0784 41.9231 78.2416 42.3445 77.5202 43.0565C77.3326 43.2309 77.1739 43.4343 77.0008 43.6087C76.9431 43.6668 76.6545 43.8848 76.6545 43.9429C76.9142 43.7395 76.9575 43.7104 76.7699 43.8412C76.7122 43.8848 76.6545 43.9139 76.5968 43.9575C75.4282 44.7276 74.2018 45.4397 72.9466 46.0645L75.1252 49.8281C76.1063 49.1597 77.0729 48.5058 78.054 47.8373C79.1072 47.1253 80.1749 46.4278 81.1415 45.5995C81.5311 45.2653 81.7908 44.5532 81.7764 44.0592C81.7619 43.5651 81.6177 43.1292 81.3147 42.7368C80.7087 41.9521 79.3958 41.5307 78.5157 42.1701C76.1495 43.9139 73.7978 45.6576 71.4317 47.4159C70.97 47.7647 70.5949 48.128 70.4362 48.7237C70.2919 49.2469 70.364 49.9444 70.6526 50.4094C71.2297 51.3103 72.6436 51.9061 73.6103 51.1941C75.9764 49.4503 78.3281 47.7066 80.6943 45.9483L78.0684 42.5189C77.9674 42.606 77.8376 42.6932 77.7366 42.7949C77.8376 42.7078 78.155 42.4026 77.7366 42.7949C77.549 42.9403 77.347 43.071 77.1595 43.2018C76.6834 43.5215 76.2072 43.8412 75.7456 44.1609C74.8078 44.8003 73.87 45.4251 72.9466 46.0645C72.0232 46.7039 71.5038 48.0117 72.1675 49.0434C72.8312 50.0752 74.0431 50.3658 75.1252 49.8281C76.3082 49.2469 77.4336 48.5639 78.5445 47.8664C79.1505 47.4886 79.7132 47.0672 80.2037 46.544C80.3624 46.3697 80.5933 46.1953 80.7376 45.9918C80.449 46.2098 80.3624 46.2679 80.5067 46.1662C80.55 46.1372 80.5933 46.1081 80.6366 46.079C80.8386 45.9773 80.752 46.0064 80.3913 46.1808C80.449 46.1662 80.5211 46.1517 80.5933 46.1517L80.0162 46.2243H80.1172C81.2425 46.1808 82.339 45.2507 82.2813 44.0446C82.2236 42.8967 81.3291 41.8213 80.1172 41.8649L80.1027 41.8795Z" fill="#875729"/>
<path d="M108.67 34.018V35.7617C108.67 36.2994 108.713 36.8516 108.655 37.3892L108.727 36.808C108.713 36.9242 108.684 37.0114 108.641 37.1277L108.857 36.6045C108.641 37.0986 108.295 37.5491 107.992 37.985C107.674 38.45 107.357 38.9296 107.039 39.3946C106.722 39.8596 106.679 40.5716 106.823 41.0802C106.967 41.5888 107.342 42.141 107.819 42.388C108.915 42.9693 110.098 42.6205 110.776 41.6033C111.122 41.0802 111.483 40.5571 111.829 40.0339C112.233 39.4382 112.681 38.8424 112.854 38.1303C113.027 37.4183 112.984 36.6772 112.984 35.9652V34.0325C112.984 32.899 111.988 31.7947 110.819 31.8528C109.651 31.9109 108.655 32.8119 108.655 34.0325L108.67 34.018Z" fill="#875729"/>
<path d="M11.167 55.1031C9.59439 54.0132 8.52674 52.2113 7.47351 50.6274C6.42029 49.0435 5.46806 47.4014 5.09294 45.5124C4.31384 41.7197 3.73673 36.8081 5.19393 33.1316C5.85761 31.4315 6.98297 30.4724 8.62773 29.7894C10.6476 28.9611 12.6964 28.2055 14.8894 28.1329C19.3908 27.9875 23.95 29.4988 28.2927 30.5015C31.0052 31.1263 32.1594 26.9268 29.447 26.3019C24.1231 25.0667 18.453 23.1777 12.9272 23.9624C8.18047 24.6453 3.13076 26.7524 1.2263 31.446C-0.678158 36.1396 -0.0577655 41.8941 0.923321 46.6749C1.41386 49.0871 2.6835 51.2523 4.03971 53.2721C5.39592 55.292 6.88198 57.4135 8.98843 58.8667C11.2824 60.4651 13.461 56.687 11.167 55.1031Z" fill="#533A27"/>
</g>
<defs>
<clipPath id="clip0_290_341">
<rect width="119" height="120" fill="white"/>
</clipPath>
</defs>
</svg>
